<svg xmlns="http://www.w3.org/2000/svg" xmlns:xlink="http://www.w3.org/1999/xlink" width="536" height="394" viewBox="0 0 536 394">
    <defs>
        <path id="prefix__a" d="M398.653 393.825c-31.748-.015-58.994-14.839-80.57-29.446-40.265-27.262-71.067-33.913-115.479-19.689-55.36 17.732-76.365 44.035-132.952 34.077-40.648-7.153-71.624-57.071-69.434-94.182 2.692-45.628 17.233-63.343 70.954-110.532 47.059-41.338 45.373-63.93 33.934-92.386-8.569-21.316-21.27-46.4 6.054-64.411 33.39-22.01 110.598-22.028 198.727-5.368 88.129 16.66 158.065 73.81 196.034 129.37 45.553 66.66 33.803 162.532-15.378 209.49-33.464 31.95-64.315 43.064-91.796 43.077h-.094"/>
        <path id="prefix__d" d="M0 393.825L535.089 393.825 535.089 0 0 0z"/>
        <path id="prefix__f" d="M.017 22.461C.017 34.82 9.85 44.84 21.982 44.84c12.132 0 21.966-10.019 21.966-22.378 0-12.358-9.834-22.377-21.966-22.377C9.852.084.017 10.103.017 22.46m10.33 0c0-6.547 5.209-11.854 11.635-11.854 6.427 0 11.637 5.307 11.637 11.854 0 6.547-5.21 11.855-11.637 11.855-6.426 0-11.636-5.308-11.636-11.855"/>
        <path id="prefix__h" d="M.017 22.461C.017 34.82 9.85 44.84 21.982 44.84c12.132 0 21.966-10.019 21.966-22.378 0-12.358-9.834-22.377-21.966-22.377C9.852.084.017 10.103.017 22.46m10.33 0c0-6.547 5.209-11.854 11.635-11.854 6.427 0 11.637 5.307 11.637 11.854 0 6.547-5.21 11.855-11.637 11.855-6.426 0-11.636-5.308-11.636-11.855"/>
        <path id="prefix__j" d="M.017 22.461C.017 34.82 9.85 44.84 21.982 44.84c12.132 0 21.966-10.019 21.966-22.378 0-12.358-9.834-22.377-21.966-22.377C9.852.084.017 10.103.017 22.46m10.33 0c0-6.547 5.209-11.854 11.635-11.854 6.427 0 11.637 5.307 11.637 11.854 0 6.547-5.21 11.855-11.637 11.855-6.426 0-11.636-5.308-11.636-11.855"/>
        <path id="prefix__l" d="M.017 22.461C.017 34.82 9.85 44.84 21.982 44.84c12.132 0 21.966-10.019 21.966-22.378 0-12.358-9.834-22.377-21.966-22.377C9.852.084.017 10.103.017 22.46m10.33 0c0-6.547 5.209-11.854 11.635-11.854 6.427 0 11.637 5.307 11.637 11.854 0 6.547-5.21 11.855-11.637 11.855-6.426 0-11.636-5.308-11.636-11.855"/>
        <path id="prefix__n" d="M.017 22.461C.017 34.82 9.85 44.84 21.982 44.84c12.132 0 21.966-10.019 21.966-22.378 0-12.358-9.834-22.377-21.966-22.377C9.852.084.017 10.103.017 22.46m10.33 0c0-6.547 5.209-11.854 11.635-11.854 6.427 0 11.637 5.307 11.637 11.854 0 6.547-5.21 11.855-11.637 11.855-6.426 0-11.636-5.308-11.636-11.855"/>
        <path id="prefix__p" d="M.017 22.461C.017 34.82 9.85 44.84 21.982 44.84c12.132 0 21.966-10.019 21.966-22.378 0-12.358-9.834-22.377-21.966-22.377C9.852.084.017 10.103.017 22.46m10.33 0c0-6.547 5.209-11.854 11.635-11.854 6.427 0 11.637 5.307 11.637 11.854 0 6.547-5.21 11.855-11.637 11.855-6.426 0-11.636-5.308-11.636-11.855"/>
        <linearGradient id="prefix__b" x1="14.744%" x2="80.061%" y1="78.741%" y2="30.593%">
            <stop offset="0%" stop-color="#4659C1"/>
            <stop offset="100%" stop-color="#3ACFDD"/>
        </linearGradient>
    </defs>
    <g fill="none" fill-rule="evenodd" transform="matrix(-1 0 0 1 536 0)">
        <g transform="translate(.175)">
            <mask id="prefix__c" fill="#fff">
                <use xlink:href="#prefix__a"/>
            </mask>
            <path fill="url(#prefix__b)" d="M490.543 350.748c49.181-46.958 60.93-142.83 15.378-209.49-37.97-55.56-107.905-112.71-196.034-129.37-88.13-16.66-165.337-16.641-198.727 5.368-27.325 18.01-14.623 43.095-6.054 64.411 11.44 28.456 13.125 51.048-33.934 92.386C17.452 221.242 2.91 238.957.218 284.585c-2.19 37.11 28.786 87.03 69.434 94.182 56.587 9.958 77.591-16.345 132.952-34.077 44.412-14.224 75.214-7.573 115.48 19.689 40.266 27.262 100.285 55.28 172.459-13.631" mask="url(#prefix__c)"/>
        </g>
        <path fill="#CCE2FF" d="M514.13 361.667c-40.583-1.985-178.642 1.377-220.63 2.688-41.988 1.31-90.726-1.73-116.044-6.2-25.317-4.47-171.659.38-165.018 12.4 6.641 12.018 65.202 5.376 131.612 10.206 66.409 4.831 215.765-.603 249.455 0 33.69.604 64.583-1.207 108-3.623 43.415-2.415 36.15-14.321 12.626-15.471"/>
        <path fill="#9EC8FF" d="M387.452 108.01c-8.428 0-15.26-6.833-15.26-15.263s6.832-15.262 15.26-15.262 15.26 6.833 15.26 15.262c0 8.43-6.832 15.263-15.26 15.263zm38.66-10.893c.161-1.435.246-2.892.246-4.37 0-.78-.025-1.553-.07-2.32l-7.219-2.337c-.444-3.043-1.317-5.948-2.555-8.65l4.786-5.89c-1.107-1.949-2.376-3.793-3.791-5.512l-7.22 2.355c-2.103-2.15-4.508-4.004-7.146-5.494l.41-7.586c-2.014-.917-4.12-1.667-6.3-2.234l-4.459 6.153c-1.737-.292-3.521-.447-5.342-.447-1.241 0-2.465.073-3.67.211l-4.126-6.38c-2.211.45-4.354 1.087-6.412 1.895l.01 7.597c-2.718 1.35-5.217 3.076-7.428 5.11l-7.082-2.733c-1.505 1.644-2.871 3.418-4.078 5.304l4.47 6.136c-1.384 2.639-2.41 5.494-3.014 8.502l-7.33 1.951c-.16 1.435-.246 2.892-.246 4.37 0 .779.026 1.552.07 2.32l7.219 2.336c.444 3.044 1.317 5.948 2.556 8.65l-4.786 5.891c1.106 1.948 2.376 3.792 3.79 5.512l7.22-2.356c2.104 2.15 4.508 4.004 7.146 5.495l-.41 7.585c2.014.918 4.12 1.668 6.301 2.234l4.458-6.152c1.737.292 3.522.447 5.342.447 1.241 0 2.465-.073 3.67-.211l4.126 6.38c2.211-.45 4.355-1.087 6.412-1.895l-.01-7.597c2.718-1.35 5.217-3.076 7.428-5.11l7.082 2.733c1.505-1.645 2.871-3.418 4.079-5.304l-4.47-6.136c1.384-2.64 2.41-5.494 3.013-8.502l7.33-1.951z"/>
        <path fill="#FFF" d="M408.265 110.37c-.177 0-.355-.059-.502-.181-.334-.278-.38-.774-.102-1.108 3.803-4.574 5.897-10.374 5.897-16.334 0-2.853-.466-5.656-1.387-8.328-.141-.41.077-.858.488-1 .41-.141.858.077.999.488.977 2.838 1.473 5.812 1.473 8.84 0 6.326-2.224 12.484-6.261 17.34-.156.187-.38.284-.605.284M406.056 74.347c-.194 0-.387-.071-.54-.214-2.555-2.407-5.515-4.231-8.797-5.422-.409-.149-.62-.6-.471-1.008.148-.408.599-.619 1.007-.47 3.485 1.264 6.627 3.2 9.34 5.755.316.298.33.795.033 1.111-.155.165-.363.248-.572.248M381.533 67.985c-.352 0-.672-.237-.762-.594-.106-.42.149-.848.57-.955 2.165-.546 4.406-.823 6.66-.823.434 0 .786.352.786.786 0 .434-.352.786-.786.786-2.124 0-4.236.261-6.275.776-.065.017-.13.024-.193.024"/>
        <path fill="#9EC8FF" d="M120.762 200.809L363.921 200.809 363.921 54.727 120.762 54.727z"/>
        <mask id="prefix__e" fill="#fff">
            <use xlink:href="#prefix__d"/>
        </mask>
        <path fill="#FFF" d="M132.609 192.398L361.374 192.398 361.374 58.291 132.609 58.291z" mask="url(#prefix__e)"/>
        <path fill="#303C60" d="M327.682 127.599c10.901-10.38 29.534-10.144 29.14 5.661-.392 15.806.913 17.291 5.4 25.583 15.566 28.769-18.555 27.076-32.785 28.02-14.23.943-13.05-25.871-10.534-40.733 2.516-14.862 5.589-15.494 8.779-18.531" mask="url(#prefix__e)"/>
        <path fill="#4476BD" d="M332.763 218.221c-3.495 29.358-9.845 51.06-10.553 64.977-.707 13.918-3.538 68.717-3.538 68.717s7.783-.545 8.49-1.724c.708-1.18 14.623-32.081 13.916-51.188-.708-19.107 13.897-48.16 13.897-48.16l-3.52-28.504-18.692-4.118z" mask="url(#prefix__e)"/>
        <path fill="#3E6BAB" d="M336.12 231.002l-5.466 2.288c-1.486 9.31-3.134 17.679-4.582 25.102 8.699 5.625 13.192 24.364 15.118 35.82.98-12.819 7.028-28.31 10.78-36.875l-15.85-26.335z" mask="url(#prefix__e)"/>
        <path fill="#4476BD" d="M361.36 215.262s11.78 15.03 11.411 32.081c-.562 25.957-3.392 33.368 1.532 60.585 1.923 10.63-4.245 45.402-4.245 45.402s-5.27.413-8.1-.996c.237-2.555-3.405-44.117-10.497-63.223-3.434-9.251-8.26-35.163-10.855-50.024-2.594-14.861-3.066-17.928-2.123-17.928.944 0 22.877-5.897 22.877-5.897" mask="url(#prefix__e)"/>
        <path fill="#F09959" d="M294.243 173.52s.524-7.776-.315-10.178c-.838-2.402-8.071-4.5-8.071-4.5s-.315 11.114.42 12.477c.733 1.363 5.03 5.242 5.03 5.242l2.936-3.04z" mask="url(#prefix__e)"/>
        <path fill="#A2DFF2" d="M334.913 167.854c-16.56 17.829-21.966 25.331-23.223 25.331-3.931-6.94-16.988-21.619-16.988-21.619l-5.567 3.58s12.865 33.62 21.041 33.967c8.176.347 24.795-11.594 25.006-12.965.211-1.371-.269-28.294-.269-28.294" mask="url(#prefix__e)"/>
        <path fill="#96CFE0" d="M317.641 207.37c8.101-3.3 17.384-10.2 17.541-11.222.211-1.371-.269-28.294-.269-28.294-3.61 3.887-6.762 7.334-9.497 10.349-2.967 11.05-2.773 23.083-7.775 29.167" mask="url(#prefix__e)"/>
        <path fill="#A2DFF2" d="M351.739 156.117s15.847 7.945 19.306 22.009c3.46 14.064-6.776 31.44-8.034 40.712-1.258 9.273-30.188 10.904-30.188.978 0-9.515-7.249-29.714-6.84-34.859.96-12.071 18.604-26.86 18.604-26.86l7.152-1.98z" mask="url(#prefix__e)"/>
        <path fill="#F09959" d="M347.133 137.897l6.804 20.984s-7.264 5.607-19.697 19.096c.483-8.976 8.001-18.76 8.001-18.76l-5.146-19.816 10.038-1.504z" mask="url(#prefix__e)"/>
        <path fill="#E38540" d="M350.307 147.685l-3.174-9.788-10.038 1.504 5.146 19.815s-.502.801-1.243 2.06c4.848-3.599 7.822-8.078 9.309-13.591" mask="url(#prefix__e)"/>
        <path fill="#F09959" d="M343.385 142.633c-1.835 6.678-8.941 10.354-13.99 8.966-5.05-1.388-6.13-7.315-4.295-13.993 1.835-6.677 7.416-10.966 12.465-9.577 5.05 1.388 7.655 7.926 5.82 14.604" mask="url(#prefix__e)"/>
        <path fill="#A2DFF2" d="M331.558 210.408c2.204 13.963-5.977 43.836-5.977 43.836s4.879 1.108 19.502-.307 21.07-16.013 23.27-16.42c2.202-.407 3.332 13.585 4.418 14.69 1.086 1.106 1.251-17.67-1.587-25.05-5.032-13.084-4.047-18.634-2.166-26.56 3.344-14.096-37.46 9.81-37.46 9.81" mask="url(#prefix__e)"/>
        <path fill="#4476BD" d="M319.027 345.042c1.317 5.352-1.282 9.597-4.763 12.692-2.83 2.516-11.53 3.585-11.111 4.843.42 1.258 10.692 1.657 14.151 1.133 3.46-.524 4.403-2.202 8.708-2.2 2.823.002 3.347-2.295 2.09-5.132-1.259-2.838-1.699-4.407-.562-6.951 1.137-2.544-8.513-4.385-8.513-4.385M370.361 345.042c-.21 5.557-.855 9.697.508 12.272 5.263 4.404 9.638 9.406 7.967 9.75-7.967 1.647-11.007-3.13-15.514-4.487-5.532-1.665.524-8.618-1.643-17.535-1.205-4.958 8.352-3.77 8.352-3.77l.33 3.77z" mask="url(#prefix__e)"/>
        <path fill="#96CFE0" d="M372.373 231.712c-.318-1.742-.71-3.311-1.19-4.555-5.03-13.084-4.046-18.634-2.165-26.56.148-.626.208-1.175.19-1.655.425-1.414.82-2.847 1.168-4.288l-1.708-15.42-12.313-14.625c-9.229 13.525-3 30.353-4.385 39.631-1.384 9.28-16.847 21.11-16.847 21.11l.503 3.292c.69 4.516 4.876 7.653 9.4 7.025 6.373-.884 14.733-2.662 18.453-6.115 3.6-3.341 6.788-.756 8.894 2.16" mask="url(#prefix__e)"/>
        <path fill="#F09959" d="M338.74 224.82s-6.827 1.91-7.643 2.337c-.816.427-1.267 2.684-1.267 2.684s-3.908 3.393-2.411 4.595c1.497 1.202 4.17 4.244 7.704 2.828 2.169-.868 3.85-8.84 5.273-8.904 1.422-.064-1.657-3.54-1.657-3.54" mask="url(#prefix__e)"/>
        <path fill="#A2DFF2" d="M358.07 162.827c7.306.207 13.93 13.367 16.238 24.785s4.738 27.65 4.738 27.65-12.108 9.557-24.07 12.35c-10.436 2.437-15.764 3.39-15.764 3.39l-2.117-5.959 24.969-14.669s-9.181-17.3-10.094-30.353c-.912-13.053.548-17.351 6.1-17.194" mask="url(#prefix__e)"/>
        <path fill="#F5DC95" d="M290.114 167.793L271.903 171.448 269.582 159.88 287.793 156.225z" mask="url(#prefix__e)"/>
        <path fill="#F09959" d="M289.862 172.577c.252-4.784-2.118-11.31-3.481-11.3-1.363.01.42 4.276-.314 7.107-.398 1.533 3.795 4.193 3.795 4.193" mask="url(#prefix__e)"/>
        <path fill="#303C60" d="M326.438 130.115c.405 13.106 15.71 12.101 19.902 11.293 4.193-.808-5.104 27.649 2.883 29.29 5.865 1.206 4.544-7.97 11.06-7.356 2.882.271 5.779 4.728 5.779 4.728s-.434-2.746-2.635-4.728c-2.202-1.983-7.973-14.145-9.49-22.847-1.517-8.702-11.79-14.33-14.83-14.505-3.04-.174-10.482 3.286-10.482 3.286l-2.187.839z" mask="url(#prefix__e)"/>
        <path fill="#303C60" d="M349.088 173.665c-.207 0-.417-.022-.631-.067-2.557-.545-3.796-3.232-3.902-8.457-.09-4.479.65-10.227 1.434-16.312.317-2.459.644-5.001.914-7.463.023-.21.21-.363.423-.34.21.024.362.213.338.424-.27 2.468-.598 5.015-.915 7.477-1.516 11.774-2.949 22.896 1.867 23.921.15.032.3.048.448.048 2.765 0 5.256-5.392 6.708-10.643.057-.204.267-.324.472-.267.203.056.323.267.266.471-.958 3.466-3.536 11.207-7.422 11.208" mask="url(#prefix__e)"/>
        <path fill="#303C60" d="M348.064 176.711c-.87 0-1.63-.337-2.264-1.007-5.217-5.516-.058-33.192.164-34.367.04-.208.24-.345.448-.306.207.04.344.24.305.448-.054.284-5.31 28.465-.36 33.699.575.608 1.257.85 2.082.741 2.71-.357 4.274-4.034 5.653-7.278 1.34-3.146 2.598-6.118 4.84-6.04.212.008.378.185.37.396-.007.212-.185.382-.396.37l-.055-.001c-1.682 0-2.834 2.709-4.054 5.575-1.46 3.433-3.115 7.323-6.257 7.738-.162.021-.32.032-.476.032" mask="url(#prefix__e)"/>
        <path fill="#F09959" d="M346.908 143.925c-1.078 1.39-2.768 1.884-3.774 1.103-1.006-.78-.948-2.54.13-3.93 1.079-1.391 2.769-1.885 3.775-1.104 1.006.78.948 2.54-.13 3.931" mask="url(#prefix__e)"/>
        <path fill="#303C60" d="M227.995 192.456c3.736 7.473.643 16.078-6.705 19.119-7.397 3.06-15.485 1.322-19.222-6.151-3.736-7.473-.961-16.434 6.198-20.015 7.16-3.581 15.992-.426 19.729 7.047" mask="url(#prefix__e)"/>
        <path fill="#303C60" d="M207.854 212.472c-.825 0-2.45-.291-4.517-2.125-1.695-1.505-2.913-3.812-3.428-6.496-.65-3.389-.226-7.284 1.258-11.578.07-.2.287-.306.488-.237.2.07.306.288.237.488-1.44 4.165-1.855 7.927-1.23 11.182.483 2.52 1.614 4.674 3.184 6.067 2.62 2.326 4.377 1.903 4.395 1.898.203-.053.413.067.469.27.055.202-.061.41-.263.468-.026.008-.234.063-.593.063" mask="url(#prefix__e)"/>
        <path fill="#A8CEFF" d="M219.28 221.535c4.252.954 9.62 12.773 12.25 20.344 2.651 7.637 7.147 17.11 10.09 20.055 2.942 2.943 22.281 9.767 22.281 9.767s-47.782.093-46.803-.002c.978-.094 2.182-50.164 2.182-50.164" mask="url(#prefix__e)"/>
        <path fill="#93BBF0" d="M244.647 267.904c-2.616-.373-12.052.841-8.035-.84 4.018-1.683 3.457-3.832 3.457-3.832s-5.7 4.766-6.727.598c-.886-3.593-1.225-16.28-4.588-28.996-2.78-6.305-6.415-12.613-9.474-13.299 0 0-.108 4.477-.285 10.755 1.173 13.893 3.165 34.303 3.67 39.448 6.334.01 16.933 0 25.801-.012l5.898-.281s-7.1-3.167-9.717-3.54" mask="url(#prefix__e)"/>
        <path fill="#A8CEFF" d="M203.646 218.916s-13.527 7.56-16.68 9.168c-3.153 1.607 8.834 48.795 11.5 50.818 2.666 2.022 26.136.348 28.808-2.2 2.672-2.549-2.05-10.368.262-26.024s-7.053-29.173-8.256-29.143c-1.204.031-9.056-2.619-9.056-2.619h-6.578z" mask="url(#prefix__e)"/>
        <path fill="#93BBF0" d="M198.466 278.902c2.665 2.022 19.46 2.067 26.61-.158.806-.25 4.47-1.71 4.555-3.084-.862-.162-4.288.25-5.678-.07-4.835-1.11-7.498-7.102-7.498-7.102s-2.663-.957-8.619-3.48c-5.956-2.524-3.504-10.163-3.644-13.527-.14-3.364-5.886-14.368-16.677-22.708l-.99.443c-.77 7.67 9.474 47.815 11.94 49.686" mask="url(#prefix__e)"/>
        <path fill="#75A1DE" d="M291.398 241.88h-32.57l-14.835 31.573h35.877l13.428-28.581c.654-1.393-.362-2.993-1.9-2.993" mask="url(#prefix__e)"/>
        <path fill="#3E6BAB" d="M245.934 273.901h-19.599c-1.216 0-2.201-.986-2.201-2.202s.985-2.201 2.201-2.201h18.194l12.302-26.48c.512-1.103 1.822-1.581 2.924-1.07 1.102.513 1.58 1.822 1.069 2.925l-12.894 27.754c-.36.777-1.14 1.274-1.996 1.274" mask="url(#prefix__e)"/>
        <path fill="#F09959" d="M211.947 267.157c8.502 1.588 10.593 3.54 15.227 4.288 5.254.847 4.63 2.008.727 2.008-3.902 0-13.707.152-17.073-.596-3.366-.748 1.119-5.7 1.119-5.7" mask="url(#prefix__e)"/>
        <path fill="#A8CEFF" d="M185.903 228.97c-6.516 20.838-15.753 44.483-14.282 44.483s38.888 1.513 40.36.253c1.471-1.26 1.05-6.096.84-6.727-.21-.63-21.271-4.369-21.271-4.369s2.773-5.406 3.824-15.971c1.051-10.566-8.235-21.622-9.47-17.67" mask="url(#prefix__e)"/>
        <path fill="#F09959" d="M208.6 200.809l-5.249 19.185s8.87 13.847 11.308 12.617c2.439-1.23-1.363-11.255-1.363-12.617s3.802-15.418 3.802-15.418l-8.498-3.767z" mask="url(#prefix__e)"/>
        <path fill="#E38540" d="M213.478 220.972c-.113-.454-.182-.795-.182-.978 0-1.362 3.802-15.418 3.802-15.418l-8.498-3.767-1.737 6.348c1.517 6.559 4.254 10.927 6.615 13.815" mask="url(#prefix__e)"/>
        <path fill="#F09959" d="M228.24 200.492c1 5.563.342 12.952-4.598 14.83-4.939 1.879-10.888-1.715-13.288-8.027-2.4-6.312-.341-12.952 4.598-14.831 4.939-1.879 12.094 1.38 13.288 8.028" mask="url(#prefix__e)"/>
        <path fill="#F09959" d="M211.524 203.622c.693 1.945.092 3.935-1.343 4.446-1.434.51-3.157-.652-3.85-2.597-.692-1.944-.09-3.935 1.343-4.446 1.434-.51 3.158.652 3.85 2.597" mask="url(#prefix__e)"/>
        <path fill="#303C60" d="M228.298 193.502c-1.681 13.055-17.54 11.373-17.54 11.373s-3.27-4.3-4.742-2.045c-1.471 2.256 2.042-13.235 11.141-13.723 2.99-.16 11.141 4.395 11.141 4.395" mask="url(#prefix__e)"/>
        <path fill="#303C60" d="M212.18 187.983c0 4.451-3.845 8.06-8.589 8.06-4.743 0-8.589-3.609-8.589-8.06 0-4.451 3.846-8.06 8.59-8.06 4.743 0 8.589 3.609 8.589 8.06" mask="url(#prefix__e)"/>
        <path fill="#2E5B9A" d="M186.484 368.311L188.448 368.311 201.13 309.54 196.809 309.54zM247.546 368.311L245.582 368.311 230.822 307.462 235.143 307.462z" mask="url(#prefix__e)"/>
        <path fill="#2E5B9A" d="M208.893 311.742c-7.868 0-12.852-1.414-16.033-4.513-3.943-3.842-4.76-9.793-4.77-17.547-.01-6.102-.155-10.076-.486-13.288-.125-1.21.755-2.291 1.964-2.416 1.21-.125 2.291.755 2.416 1.965.346 3.367.498 7.474.508 13.733.012 7.858 1.008 12.03 3.44 14.399 2.494 2.43 7.005 3.433 14.62 3.242 7.354-.182 12.416-1.21 16.483-2.038 5.35-1.087 9.215-1.873 13.799.318 1.097.524 1.561 1.838 1.037 2.936-.524 1.097-1.839 1.561-2.935 1.037-3.254-1.555-6.014-.994-11.024.025-4.237.86-9.51 1.933-17.252 2.124-.604.015-1.194.023-1.767.023" mask="url(#prefix__e)"/>
        <path fill="#2E5B9A" d="M191.019 273.706l12.043.501-3.207 33.257s-8.976-5.732-8.836-11.899c.14-6.168 0-21.859 0-21.859" mask="url(#prefix__e)"/>
        <path fill="#F09959" d="M250.469 276.804c10.183-1.545 13.644-1.059 19.876 10.542 6.232 11.601 14.528 32.489 19.298 35.186 7.184 4.063 9.565 14.023 12.515 13.576 2.95-.448 4.848.856 1.638 3.524s-8.393 4.94-10.166 4.467c-1.772-.474-3.147-8.134-7.776-10.62-4.63-2.488-3.239-4.531-2.935-6.731.305-2.2-13.513-12.33-23.929-24.926-6.364-7.697-9.641-12.778-10.127-17.383-.486-4.605 1.606-7.635 1.606-7.635" mask="url(#prefix__e)"/>
        <path fill="#E38540" d="M275.713 318.87c-2.365-6.001-4.736-15.906-6.967-24.987-3.17-12.914-6.495-15.98-8.6-17.357-2.546-.638-5.563-.346-9.677.278 0 0-2.092 3.03-1.606 7.635s3.763 9.685 10.127 17.383c5.484 6.633 11.911 12.58 16.723 17.047" mask="url(#prefix__e)"/>
        <path fill="#2E5B9A" d="M253.57 287.014s-2.71 20.448-5.232 22.526c-1.805 1.487-3.084 1.586-4.345-4.512-1.261-6.099 1.962-28.86 1.962-28.86l7.615 10.846z" mask="url(#prefix__e)"/>
        <path fill="#F09959" d="M251.411 298.079L226.335 302.293 240.492 281.99 251.266 279.796 257.727 281.282z" mask="url(#prefix__e)"/>
        <path fill="#2E5B9A" d="M282.92 326.748c-.814 3.277-.716 5.699.697 6.912 1.413 1.214 6.75 10.234 6.75 10.234l1.662-.252-3.85-8.253-5.26-8.641z" mask="url(#prefix__e)"/>
        <path fill="#2E5B9A" d="M293.63 344.099c1.773.474 6.956-1.798 10.166-4.467 3.21-2.668 1.311-3.972-1.638-3.524-.167.025-.331.015-.495-.025-1.473 3.292-6.318 5.761-7.883 2.284-1.549-3.446-8.188-10.304-10.863-11.772.007.054.009.106.002.153-.304 2.2-1.695 4.243 2.935 6.73s6.004 10.147 7.776 10.62" mask="url(#prefix__e)"/>
        <path fill="#E38540" d="M199.287 277.623c-8.897 15.969-2.82 26.119 7.994 27.153 10.813 1.034 27.883-.94 37.833-9.211 9.95-8.27 18.119-17.015 16.978-18.32-1.141-1.304-62.805.378-62.805.378" mask="url(#prefix__e)"/>
        <path fill="#F09959" d="M249.74 289.538c1.821-5.467 3.92-9.661 7.987-9.737 4.275-.08 6.905 2.145 7.088 9.14.218 8.33.51 35.919.126 48.185-.291 9.286 2.415 12.259 2.186 21.94-.172 7.29 7.599 3.607 4.597 7.388-2.064 2.6-8.209 1.75-11.983 1.27-3.363-.428 1.74-10.509-2.914-13.204-3.994-2.313-4.072-6.068-1.55-8.91 2.523-2.843.28-11.253-1.401-17.14-1.682-5.888-4.29-12.257-6.003-26.177-.489-3.968.753-9.417 1.866-12.755" mask="url(#prefix__e)"/>
        <path fill="#2E5B9A" d="M269.065 363.478c-1.288.393-2.875.826-4.258.872-2.803.094-3.644-2.99-3.83-7.18-.164-3.657-2.82-9.418-5.544-11.753-.05.066-.101.131-.156.193-2.522 2.842-2.444 6.597 1.55 8.91 4.655 2.695-.45 12.776 2.914 13.204 3.774.48 9.919 1.33 11.983-1.27 1.95-2.457-.47-2.653-2.66-2.976" mask="url(#prefix__e)"/>
        <path fill="#2E5B9A" d="M255.908 344.568s-4.088 4.27-3.714 6.045c.374 1.776 1.634 6.261 1.845 9.719.21 3.457.398 7.426.398 7.426s1.47 0 1.588-.417c.117-.418.934-14.054.934-14.054l-1.051-8.719z" mask="url(#prefix__e)"/>
        <path fill="#75A1DE" d="M195.002 276.168s-5.277 22.4 1.39 28.608c6.668 6.208 34.353.623 40.874.252 4.415-.252 8.69 5.137 8.69 5.137s-3.084-12.497-.982-22.59c2.102-10.092 5.495-10.77 5.495-10.77l-4.514-.637h-50.953z" mask="url(#prefix__e)"/>
        <path fill="#A8CEFF" d="M193.807 270.311c2.257 4.789-2.429 13.059-.787 15.442 1.642 2.383 11.044.334 17.204-4.626s17.82-6.05 17.82-6.05l-34.237-4.766z" mask="url(#prefix__e)"/>
        <path fill="#2E5B9A" d="M203.351 311.124c18.64.701 38.26.37 38.26-2.408s-.841-4.74-15.276-3.62c-14.435 1.122-24.245 2.664-28.59 1.683-4.344-.981 5.606 4.345 5.606 4.345M401.89 278.528H139.731c-1.247 0-2.26-1.011-2.26-2.26v-.555c0-1.248 1.013-2.26 2.26-2.26h262.16c1.247 0 2.259 1.012 2.259 2.26v.556c0 1.248-1.012 2.26-2.26 2.26" mask="url(#prefix__e)"/>
        <path fill="#F09959" d="M437.015 205.435c1.806 6.367-2.604 12.929-7.463 14.307-4.858 1.379-8.325-2.948-10.13-9.315-1.807-6.368.668-12.647 5.526-14.026 4.859-1.378 10.261 2.666 12.067 9.034M409.776 328.82s12.451 19.342 14.133 20.183c1.682.84 5.886 1.051 4.31 4.205-1.577 3.154-2.208 15.558-3.68 16.189-1.47.63-14.083 2.103-12.191 0 1.891-2.102 3.055-1.051 4.01-4.836.954-3.784 2.295-10.933.51-12.404-1.788-1.472-12.718-14.718-12.718-14.718l5.626-8.62zM347.108 337.126s-15.135 24.95-17.938 27.193c-2.803 2.243-12.053 5.607-4.485 6.168 7.568.56 11.212-2.523 15.976-3.925 4.766-1.402 10.651-2.243 8.41-5.887-2.243-3.645-1.312-11.6 3.522-16.647 4.834-5.046-5.485-6.902-5.485-6.902" mask="url(#prefix__e)"/>
        <path fill="#6791C9" d="M424.347 279.269s-37.468-.98-52.323 11.213c-8.69 13.177-29.71 52.053-31.343 56.338 1.121 1.121 7.428 3.144 10.23 2.864 8.269-9.861 19.198-18.386 23.545-26.121 5.356-9.532 7.007-14.298 15.696-15.139 8.689-.84 28.309-3.644 34.195-3.644 5.886 0 0-25.511 0-25.511" mask="url(#prefix__e)"/>
        <path fill="#2E5B9A" d="M457.02 370.554L455.056 370.554 440.973 311.783 445.293 311.783zM398.187 370.554L400.151 370.554 416.312 309.705 411.991 309.705z" mask="url(#prefix__e)"/>
        <path fill="#75A1DE" d="M445.693 276.702l-21.784 3.76s-28.948.266-42.18 2.732c-12.038 2.242-13.812 15.923 0 34.762 7.846 10.702 14.48 19.238 28.047 28.864 3.45-2.535 4.771-3.493 5.725-9.59-.982-1.347-3.524-9.775-4.312-11.424-7.505-15.69-17.52-21.394-17.66-22.938 1.682-2.733 44.546 14.247 53.068 4.258 8.137-9.536-.904-30.424-.904-30.424" mask="url(#prefix__e)"/>
        <path fill="#F37168" d="M446.597 227.376c-5.737-.806-11.58.285-17.045 4.242-4.775 4.869-10.178 12.897-9.847 26.141.42 16.82-2.602 17.9.55 22.526 13.152 5.431 35.643 28.77 30.347 3.75-3.835-18.117 8.411-31.62-1.468-51.716-.804-1.635-1.81-3.221-2.537-4.943" mask="url(#prefix__e)"/>
        <path fill="#D54A41" d="M419.701 264.09c-.256 8.768-1.494 11.351-.547 14.1 5.361.547 15.168 2.693 17.619 6.125 2.803 3.925 5.606 4.485 4.298 1.588-1.308-2.897-4.765-7.008.56-21.119 5.326-14.11 7.848-23.642 2.616-33.454l-24.546 32.76z" mask="url(#prefix__e)"/>
        <path fill="#F09959" d="M446.597 227.376c-3.532-8.365-4.4-17.763-4.4-17.763l-9.25 2.733s5.256 11.774.211 15.979c-1.073.894-2.316 1.979-3.606 3.293 5.465-3.957 11.308-5.048 17.045-4.242" mask="url(#prefix__e)"/>
        <path fill="#E38540" d="M442.476 211.84c-.548-.487-1.234-1.096-1.954-1.732l-7.544 2.229-.016.04c.182.418 2.104 4.902 2.357 9.217 2.248-1.365 4.71-3.59 7.524-7.475-.153-.862-.274-1.63-.367-2.279" mask="url(#prefix__e)"/>
        <path fill="#F09959" d="M440.095 230.007c-9.526 3.332-8.47 13.37-17.237 28.173-4.537 7.661-8.751 7.547-8.751 7.547s-10.642.085-23.512-1.49c-8.06-.985-8.571 1.415-2.966 3.42 11.305 4.042 23.037 8.394 32.496 7.343 9.46-1.052 25.638-25.192 26.472-31.475 1.154-8.691-1.705-15.197-6.502-13.518" mask="url(#prefix__e)"/>
        <path fill="#2E5B9A" d="M435.191 313.985c-.59 0-1.196-.008-1.817-.023-7.742-.191-13.015-1.264-17.252-2.125-5.01-1.018-7.77-1.58-11.023-.024-1.097.524-2.411.06-2.935-1.038-.525-1.097-.06-2.411 1.036-2.935 4.584-2.191 8.45-1.406 13.8-.318 4.067.827 9.129 1.856 16.483 2.038 8.281.205 13.347-1.037 15.935-3.908 2.312-2.564 2.992-6.837 2.142-13.45-.287-2.24-.575-4.101-.83-5.744-.712-4.61-1.183-7.655-.601-12.35.542-4.375 1.993-10.214 5.356-21.542.346-1.165 1.572-1.83 2.737-1.483 1.166.346 1.83 1.571 1.484 2.737-6.29 21.188-5.97 23.257-4.624 31.965.258 1.67.55 3.56.845 5.856 1.026 7.982-.003 13.37-3.24 16.96-3.334 3.699-8.772 5.384-17.496 5.384" mask="url(#prefix__e)"/>
        <path fill="#D54A41" d="M348.137 358.155c-10.043 4.913-15.448 7.728-18.668 7.46-.76-.064-1.39-.141-1.918-.224-3.581 2.118-9.298 4.62-2.866 5.096 7.568.56 11.212-2.523 15.976-3.925 4.765-1.402 10.652-2.243 8.41-5.887-.43-.698-.742-1.556-.934-2.52M425.004 349.414c-.246 7.953-1.339 15.833-6.202 17.322-1.29.395-2.464.451-3.504.312-.764.946-1.698.957-2.95 2.35-1.892 2.102 10.72.63 12.192 0 1.471-.632 2.102-13.036 3.678-16.19 1.295-2.59-1.31-3.195-3.214-3.794" mask="url(#prefix__e)"/>
        <path fill="#75A1DE" d="M386.32 273.901h-31.905c-.857 0-1.635-.497-1.996-1.274l-12.893-27.754c-.513-1.103-.034-2.412 1.068-2.925 1.103-.512 2.412-.033 2.924 1.07l12.302 26.48h30.5c1.216 0 2.201.985 2.201 2.201 0 1.216-.985 2.202-2.201 2.202" mask="url(#prefix__e)"/>
        <path fill="#F09959" d="M392.995 264.516c-6.447-.094-12.84-3.937-16.017-3.376-3.177.56-13.547 7.756-12.239 8.036 1.308.28 9.53-3.982 9.81-4.047.28-.064 2.056 2.952 6.447 4.06 4.39 1.109.03-3.291 13.643.82 8.85 2.674-1.644-5.493-1.644-5.493" mask="url(#prefix__e)"/>
        <path fill="#F2E5DE" d="M445.649 219.742l.948 7.634s-8.342.496-12.493 2.832c-4.151 2.337-10.278 9.086-10.278 9.086l5.005-8.618.721-5.514 16.097-5.42z" mask="url(#prefix__e)"/>
        <path fill="#F2E5DE" d="M442.099 229.087c-6.197-1.161-9.063 4.392-13.08 13.457-4.018 9.064-10.876 20.073-12.24 21.493-1.364 1.419-22.984 0-22.984 0s-.653 6.26 0 7.008c.655.748 4.392.654 4.392.654s1.495 1.194 2.896 2.14c1.401.944 13.267 2.72 18.78 2.44 5.512-.281 10.557-.748 11.304-1.59.748-.84 15.79-24.016 16.724-32.332.934-8.317-2.63-12.677-5.792-13.27" mask="url(#prefix__e)"/>
        <path fill="#303C60" d="M423.826 190.96c-11.718.561-9.88 18.194-9.88 18.194s3.043.94 9.42-.111c-.49-1.893-.28-6.729-.28-6.729s.74 3.925 1.681 6.308c1.348.618 2.873.07 5.466-.557 1.331 5.603 5.094 7.97 7.67 8.78 2.846.895 5.858 1.963 9.222.28 3.363-1.681 1.514-18.876-.272-22.333-2.681-5.19-7.137-9.836-14.845-7.383-3.865 1.23-8.182 3.551-8.182 3.551" mask="url(#prefix__e)"/>
        <path fill="#303C60" d="M444.206 211.902l4.79 7s-5.31 13.269 10.134 19.28c12.095 4.71 10.67 13.005 5.205 21.348-5.466 8.343 3.27 15.629 3.27 15.629s1.332-9.242 13.083-10.987c16.023-2.378 20.56-23.895 8.592-34.654-9.903-8.903-12.916-1.53-19.62-9.519-6.704-7.99-19.359-2.593-19.359-2.593l-4.638-6.766-1.457 1.262z" mask="url(#prefix__e)"/>
        <path fill="#303C60" d="M494.792 251.15c-.062 0-.125-.015-.183-.047-.186-.102-.254-.334-.152-.52 4.038-7.382.743-16.326-.915-18.749-.175-.255-.34-.515-.517-.79-1.629-2.543-3.657-5.708-14.464-7.654-2.588-.466-4.688-2.008-6.911-3.64-4.61-3.386-9.836-7.222-21.188-1.996-.193.089-.42.004-.509-.188-.088-.192-.004-.42.188-.508 11.763-5.415 17.181-1.436 21.962 2.074 2.15 1.578 4.18 3.07 6.594 3.504 11.136 2.005 13.264 5.327 14.973 7.995.173.27.336.524.505.77.998 1.46 2.232 4.484 2.737 7.95.438 3.004.484 7.456-1.783 11.6-.07.127-.201.2-.337.2M441.646 219.03c-.764 0-1.591-.066-2.482-.2-4.084-.611-9.564-2.935-9.995-15.99-.007-.21.16-.388.37-.395.218-.01.39.16.396.37.178 5.404 1.251 9.404 3.19 11.888 1.474 1.891 3.43 2.962 6.153 3.37 3.814.571 6.343-.136 7.518-2.103.109-.182.344-.24.525-.132.182.108.241.344.133.525-1.06 1.775-3.01 2.668-5.808 2.668" mask="url(#prefix__e)"/>
        <path fill="#96CFE0" d="M75.915 228.294c-13.601 7.78-32.52 40.115-28.526 45.392 3.994 5.278 25.435-8.599 25.435-8.599l3.091-36.793z" mask="url(#prefix__e)"/>
        <path fill="#303C60" d="M101.327 190.794c-5.194-.141-3.267-4.002-9.24-2.46-3.14.81-.822 2.102-4.901 1.681-4.08-.42-6.086-.84-6.6 1.823-.515 2.663-.764 3.504-2.725 3.924-1.963.42-2.849 3.925 0 6.308 2.847 2.383 1.463 3.364.832 5.327-.63 1.962 1.52 2.102 2.687 3.925 1.167 1.822-1.075 2.166.607 3.746 1.681 1.58 4.04 1.44 4.04 1.44l7.08-13.577 8.22-12.137z" mask="url(#prefix__e)"/>
        <path fill="#2E5B9A" d="M207.143 353.756s7.567.21 13.453-2.102c5.886-2.313 9.88-5.887 8.829-1.682-1.052 4.205-5.886 11.42-10.09 12.122-4.204.703-5.676 5.328-7.988 5.328-2.312 0-5.676-5.328-11.561-7.991-5.365-2.427 7.357-5.675 7.357-5.675M147.507 353.047s3.183 4.39 8.721 7.443c5.72 3.154 12.32 4.672 8.228 6.098-4.092 1.427-10.075 2.536-15.911.84-4.094-1.189-8.893-1.438-10.16-3.372-1.268-1.934 1.492-6.792.344-14.052-.92-5.817 8.778 3.043 8.778 3.043" mask="url(#prefix__e)"/>
        <path fill="#3E6BAB" d="M112.07 282.488s43.838 16.417 47.37 21.007c3.531 4.59 49.61 46.397 49.61 49.48 0 3.085-7.847 8.691-7.847 8.691s-39.521-24.25-49.331-36.584c-9.81-12.336-33.753-18.282-46.481-19.425-12.729-1.142 6.68-23.169 6.68-23.169" mask="url(#prefix__e)"/>
        <path fill="#4476BD" d="M113.753 282.488s29.99-1.121 36.437 0c6.447 1.122 20.587 1.109 11.338 27.217-7.25 20.463-9.642 46.372-9.642 46.372l-14.414 3.541s.572-46.587 7.45-58.991c-5.01.825-14.203 2.437-26.945 6.08-23.637 6.762-36.597 3.376-36.597 3.376l-3.52-12.335 35.893-15.26z" mask="url(#prefix__e)"/>
        <path fill="#A86B48" d="M88.708 205.04L81.38 226.696 90.637 232.793 95.884 214.081z" mask="url(#prefix__e)"/>
        <path fill="#7A4E34" d="M91.465 229.84l4.419-15.76-7.176-9.04-2.68 7.921c.924 7.154 3.16 13.072 5.437 16.879" mask="url(#prefix__e)"/>
        <path fill="#A86B48" d="M107.4 208.706c.238 6.586-2.997 12.286-8.138 12.794-5.141.506-9.833-4.4-10.48-10.958-.646-6.559 2.997-12.287 8.138-12.794 5.142-.507 10.105.564 10.48 10.958" mask="url(#prefix__e)"/>
        <path fill="#A2DFF2" d="M77.86 226.065c-22.493 15.194-8.503 39.747-3.564 57.689 4.207 15.282 4.07 24.517 4.7 24.517.632 0 16.101-2.312 24.93-10.302s14.797-15.727 14.797-15.727-11.31-2.015-15.007-16.65c-1.877-7.43-1.024-11.465-5.302-23.239-4.278-11.773-20.554-16.288-20.554-16.288" mask="url(#prefix__e)"/>
        <path fill="#A2DFF2" d="M77.86 226.065l2.41-5.896s7.638 5.046 10.686 7.429 4.928 2.943 4.928 2.943 1.102 8.452.386 7.685c-9.015-9.663-18.41-12.161-18.41-12.161" mask="url(#prefix__e)"/>
        <path fill="#2E5B9A" d="M67.891 370.554L69.855 370.554 83.939 311.783 79.618 311.783zM126.725 370.554L124.761 370.554 108.6 309.705 112.921 309.705z" mask="url(#prefix__e)"/>
        <path fill="#2E5B9A" d="M89.77 313.984c-7.867 0-12.852-1.413-16.033-4.512-3.943-3.842-4.758-9.793-4.77-17.547-.025-16.3-.926-19.67-5.515-29.624-.508-1.105-.026-2.413 1.078-2.922 1.104-.509 2.412-.026 2.92 1.078 4.85 10.521 5.893 14.389 5.92 31.461.011 7.859 1.008 12.03 3.44 14.4 2.494 2.43 7.003 3.431 14.62 3.242 7.353-.182 12.415-1.21 16.483-2.038 5.35-1.088 9.215-1.873 13.798.318 1.097.524 1.562 1.838 1.038 2.935-.525 1.098-1.839 1.562-2.936 1.038-3.253-1.555-6.013-.994-11.024.024-4.236.862-9.51 1.934-17.251 2.125-.605.015-1.194.022-1.768.022" mask="url(#prefix__e)"/>
        <path fill="#3E6BAB" d="M186.962 273.647h-31.905c-1.216 0-2.201-.986-2.201-2.202s.985-2.202 2.201-2.202h30.5l12.302-26.48c.512-1.103 1.822-1.581 2.924-1.069 1.103.512 1.581 1.822 1.069 2.925l-12.893 27.754c-.361.777-1.14 1.274-1.997 1.274" mask="url(#prefix__e)"/>
        <path fill="#96CFE0" d="M78.693 248.187s5.606 17.1 12.543 24.18c6.937 7.078 20.898 9.456 25.27 9.178-3.486-1.4-10.122-5.388-12.79-15.954-1.877-7.43-1.024-11.464-5.302-23.238-3.176-8.74-12.961-13.479-17.794-15.341 6.032 4.333 13.574 11.47 15.892 16.9 2.572 6.027-17.819 4.275-17.819 4.275" mask="url(#prefix__e)"/>
        <path fill="#A86B48" d="M156.066 263.195s9.669-4.415 10.72-3.995c1.05.42 11.771 6.895 11.771 7.968 0 1.073-9.459-3.998-9.459-3.998s1.051 2.803.42 4.147c-.63 1.344-7.901 1.344-14.46.924-6.56-.42 1.008-5.046 1.008-5.046" mask="url(#prefix__e)"/>
        <path fill="#A2DFF2" d="M79.002 234.975c-8.913 18.272 21.663 36.796 39.802 38.442 18.14 1.647 39.691-4.29 39.691-4.29l-2.43-5.932s-36.34-4.744-37.26-5.409c-.92-.664-36.538-29.504-39.803-22.811" mask="url(#prefix__e)"/>
        <path fill="#A86B48" d="M90.591 205.656c.827 2.174.22 4.42-1.353 5.019-1.573.598-3.518-.678-4.344-2.851-.827-2.173-.22-4.42 1.353-5.019 1.573-.598 3.518.678 4.344 2.851" mask="url(#prefix__e)"/>
        <path fill="#303C60" d="M107.412 191.744c2.463-1.028 5.237-2.13 4.379 2.056-.374 1.822 0 1.308.654 2.99.654 1.683-1.649 3.003-2.396 3.938-.748.934 1.088 1.95-.407 3.07-1.495 1.122-3.466-.415-4.859 0-4.157 1.242-3.643-2.029-5.979-2.709-2.336-.68-3.48-.575-3.924.92-.444 1.495 1.635 6.416-.14 5.949-1.776-.468-2.175 3.504-2.653 5.747-.477 2.242-1.695-1.549-1.616-4.114.12-3.935-.856-5.587-2.305-6.689-1.45-1.1-2.066-11.111 4.94-11.485 7.008-.374 7.053-1.05 10.042-1.682 2.99-.632 3.142 2.478 4.264 2.01" mask="url(#prefix__e)"/>
        <path fill="#74B570" d="M500.266 306.059c4.468 4.08 2.526 8.16-.777 15.738-3.302 7.577-3.885 35.556-3.885 35.556l2.72-.389s-.389-28.755 3.302-36.527c3.691-7.772 5.245-11.658 8.547-9.132 3.303 2.526-9.907-5.246-9.907-5.246" mask="url(#prefix__e)"/>
        <path fill="#9CD499" d="M497.812 300.776c.543-2.418 3.765-5.034 8.074-7.253-.64 3.566-2.695 9.397-.569 10.593 2.867 1.613.28-6.528 1.386-11.003 4.046-1.976 8.913-3.592 13.396-4.395l-.019.049c-2.525 6.412-5.827 8.937-4.467 9.909 1.022.73 4.355-6.676 8.755-10.472 3.303-.176 6.097.272 7.75 1.58 2.554 2.023 4.27 3.818 1.7 9.978-1.469 1.05-3.37 1.801-5.579 2.022-5.828.583-8.547.778-4.468 2.72 1.998.952 5.346-.053 8.061-.665-.88 1.623-1.963 3.46-3.279 5.553-.834 1.326-1.753 2.479-2.73 3.475-1.878.36-3.516.364-4.383-.008-2.72-1.166-9.713-4.857-11.46-3.303-1.712 1.522 12.95 2.485 11.934 6.351-7.107 4.096-15.24 2.147-16.677-1.614-1.93-5.05-9.059-6.238-7.425-13.517" mask="url(#prefix__e)"/>
        <path fill="#74B570" d="M512.504 328.403c-7.77-5.83-15.734-.389-19.814 5.829-4.079 6.217-1.165 20.206-1.165 20.206s1.554 0 1.554-.583c0-.582-4.274-16.514 5.828-23.704 6.319-4.497 10.878-2.331 11.46-.194.583 2.137-2.525 6.023-2.525 6.023l4.662-7.577z" mask="url(#prefix__e)"/>
        <path fill="#9CD499" d="M494.633 316.421c7.77 0 10.295 12.046 8.159 19.041-2.137 6.995-5.05 20.012-5.05 20.012l-1.944-1.942s7.382-18.264 5.634-26.425c-1.749-8.16-6.022-9.52-6.8-9.52-.776 0 0-1.166 0-1.166" mask="url(#prefix__e)"/>
        <path fill="#74B570" d="M501.15 335.516c.546-.724 1.222-1.322 2.045-1.719-.108.579-.242 1.137-.403 1.665-.974 3.187-2.109 7.624-3.056 11.51l-.423-2.447c-.049-.28-.087-.583-.113-.905.76-2.588 1.48-5.409 1.95-8.104" mask="url(#prefix__e)"/>
        <path fill="#9CD499" d="M503.274 335.575c14.764-6.218 6.986-14.75 20-9.115.918.397 2.035 1.398 3.153 2.778-1.159.328-2.562.565-4.123.33-3.885-.582-2.526 2.526 3.885 3.304 1.208.146 2.188.348 3.004.634 3.054 5.866 4.43 13.586-2.033 16.27-1.273.528-2.847.83-4.6.943-1.994-1.585.487-10.759-2.587-9.493-2.952 1.216.925 7.865.393 9.54-2.913-.053-6.14-.529-9.222-1.293-1.22-.684-2.151-1.6-2.438-2.806-.972-4.08 5.439-6.606 5.633-10.104.179-3.215-2.35 7.074-9.047 8.588-6.057-2.83-8.919-6.67-2.018-9.576M492.755 324.582c1.554-3.303-2.525-4.08-2.331-1.555.172 2.238.191 7.679-2.104 9.16-3.958-.429-9.343-2.024-13.413-4.455-.052-.329-.002-.667.17-1.013 1.75-3.498 13.016-6.412 9.52-7.578-2.786-.928-7.665 4.552-11.597 7.312-2.362-1.792-3.944-3.928-3.944-6.313 0-3.228 3.921-6.882 8.992-8.628 2.282.23 4.402 1.478 7.714 3.355 4.891 2.773 3.76-1.71-.865-4.37 3.993.206 7.974 1.913 10.91 5.989 0 0-.278 1.742 1.566 4.437 5.03 7.353-.775 11.645-7.714 11.366.392-1.938 2.022-5.425 3.096-7.707" mask="url(#prefix__e)"/>
        <path fill="#74B570" d="M512.037 328.073c3.799 2.936 8.019 6.37 13.2 8.7 5.18 2.333 4.143 9.932 4.143 9.932s.778-6.563-3.54-8.808c-4.316-2.246-7.166-4.923-10.446-5.44-3.281-.52-5.095-1.037-5.095-1.037s1.036-2.073.432-2.85c-.604-.777 1.306-.497 1.306-.497M530.762 293.595c-13.9 3.714-24.089 12.608-25.988 14.767-1.9 2.16-1.9 2.764-1.9 2.764l1.468 2.763.69-.345s-1.122-2.332 1.814-5.354c5.062-5.213 11.224-9.327 15.455-11.14 4.23-1.814 8.461-3.455 8.461-3.455" mask="url(#prefix__e)"/>
        <path fill="#75A1DE" d="M493.164 370.554h3.766c4.203 0 7.61-3.408 7.61-7.611V351.51h-18.987v11.433c0 4.203 3.408 7.611 7.61 7.611" mask="url(#prefix__e)"/>
        <path fill="#FFF" d="M485.553 355.029L504.54 355.029 504.54 353.692 485.553 353.692zM485.553 356.916L504.54 356.916 504.54 356.13 485.553 356.13z" mask="url(#prefix__e)"/>
        <path fill="#F5DC95" d="M267.15 96.651c0-14.392-11.573-26.08-25.918-26.264-14.412-.185-26.373 11.423-26.601 25.837-.112 7.036 2.543 13.45 6.947 18.228 2.03 2.2 3.155 5.084 3.155 8.077v11.775c0 7.617 6.232 13.85 13.847 13.85h4.617c7.616 0 13.847-6.233 13.847-13.85V122.53c0-3.018 1.163-5.906 3.203-8.13 4.287-4.675 6.903-10.906 6.903-17.749" mask="url(#prefix__e)"/>
        <path fill="#FFF" d="M263.481 98.414c0-12.382-9.956-22.437-22.297-22.595-12.399-.159-22.688 9.827-22.885 22.228-.096 6.053 2.188 11.571 5.977 15.68 1.745 1.894 2.714 4.375 2.714 6.95v10.13c0 6.552 5.36 11.914 11.913 11.914h3.971c6.552 0 11.913-5.362 11.913-11.915v-10.128c0-2.597 1.001-5.082 2.756-6.995 3.687-4.022 5.938-9.382 5.938-15.27" mask="url(#prefix__e)"/>
        <path fill="#94BDF2" d="M244.77 127.251h-8.648c-.406 0-.746-.31-.783-.714-.015-.168-1.63-16.866-9.094-21.542-.369-.23-.48-.716-.25-1.084.23-.368.716-.48 1.084-.25 7.282 4.562 9.351 18.632 9.75 22.018h7.11c-.029-1.162.038-3.404.707-6.306.895-3.878 3.088-9.729 8.459-15.577.294-.32.79-.34 1.11-.047.32.294.341.791.048 1.111-9.815 10.688-8.724 21.409-8.712 21.516.025.223-.045.445-.194.613-.15.167-.363.262-.587.262" mask="url(#prefix__e)"/>
        <path fill="#94BDF2" d="M228.987 97.117c-.519 0-.966.095-1.323.307-.773.457-1.172 1.556-1.187 3.265-.016 1.813.383 2.98 1.187 3.467 1.94 1.176 6.471-1.01 10.818-3.304-3.514-1.875-7.202-3.735-9.495-3.735m12.835 3.74c4.318 2.295 8.835 4.492 10.829 3.317.834-.492 1.269-1.67 1.292-3.502.022-1.73-.352-2.842-1.112-3.305-1.928-1.173-6.609 1.156-11.009 3.49m9.422 5.213c-2.92 0-6.9-2.074-11.093-4.323-5.414 2.884-10.471 5.47-13.302 3.754-1.33-.806-1.966-2.385-1.944-4.826.02-2.298.679-3.847 1.957-4.604 2.836-1.68 7.904 1 13.292 3.892 5.495-2.93 10.668-5.66 13.494-3.939 1.27.773 1.897 2.343 1.867 4.668-.03 2.42-.726 4.046-2.066 4.837-.637.375-1.379.541-2.205.541M243.434 151.89h-4.56c-1.903 0-3.46-1.557-3.46-3.46s1.557-3.46 3.46-3.46h4.56c1.902 0 3.459 1.557 3.459 3.46s-1.557 3.46-3.46 3.46" mask="url(#prefix__e)"/>
        <path fill="#94BDF2" d="M223.97 125.836v8.328c0 7.978 6.526 14.504 14.501 14.504h4.835c7.975 0 14.501-6.526 14.501-14.504v-8.328H223.97z" mask="url(#prefix__e)"/>
        <path fill="#9EC8FF" d="M257.559 128.457h-32.915c-1.096 0-1.992-.896-1.992-1.992s.896-1.992 1.992-1.992h32.915c1.095 0 1.991.896 1.991 1.992s-.896 1.992-1.991 1.992" mask="url(#prefix__e)"/>
        <path fill="#9EC8FF" d="M257.679 131.457l-32.667 4.036c-1.087.134-2.086-.646-2.22-1.733-.135-1.088.645-2.087 1.732-2.222l32.666-4.036c1.088-.134 2.087.646 2.221 1.733.134 1.088-.645 2.087-1.732 2.222M257.679 137.211l-32.667 4.036c-1.087.134-2.086-.645-2.22-1.733-.135-1.087.645-2.087 1.732-2.221l32.666-4.036c1.088-.134 2.087.646 2.221 1.733.134 1.087-.645 2.087-1.732 2.221M255.56 143.38l-26.992 3.335c-1.052.13-2.019-.624-2.149-1.676l-.016-.128c-.13-1.052.625-2.02 1.677-2.15l26.992-3.334c1.052-.13 2.019.624 2.149 1.676l.015.128c.13 1.052-.624 2.02-1.676 2.15M492.81 150.823h17.647c0 9.683-7.966 17.65-17.647 17.65-9.681 0-17.648-7.967-17.648-17.65 0-9.684 7.967-17.652 17.648-17.652v17.652z" mask="url(#prefix__e)"/>
        <path fill="#F39892" d="M513.413 148.351c0-9.748-7.901-17.651-17.648-17.651v17.651h17.648zM478.118 148.351c0 9.749 7.9 17.651 17.648 17.651-9.682 0-17.648-7.968-17.648-17.65M495.765 130.7c-9.746 0-17.647 7.903-17.647 17.651 0-9.683 7.966-17.651 17.647-17.651" mask="url(#prefix__e)"/>
        <path fill="#F39892" d="M495.765 166.002c9.747 0 17.648-7.902 17.648-17.65 0 9.682-7.967 17.65-17.648 17.65" mask="url(#prefix__e)"/>
        <path fill="#9EC8FF" d="M147.423 150.302L151.277 150.302 151.277 139.147 147.423 139.147zM196.825 150.302L200.679 150.302 200.679 142.776 196.825 142.776zM163.757 150.302L167.611 150.302 167.611 124.203 163.757 124.203zM171.924 150.302L175.779 150.302 175.779 138.571 171.924 138.571zM180.092 150.302L183.946 150.302 183.946 135.25 180.092 135.25zM155.59 150.302L159.444 150.302 159.444 131.782 155.59 131.782zM188.286 150.302L192.141 150.302 192.141 127.492 188.286 127.492z" mask="url(#prefix__e)"/>
        <g transform="translate(3 84)">
            <mask id="prefix__g" fill="#fff">
                <use xlink:href="#prefix__f"/>
            </mask>
            <path fill="#A2DFF2" d="M41.835 34.829L21.982 22.46l-3.59 23.423c9.326 1.498 18.575-2.954 23.443-11.055" mask="url(#prefix__g)"/>
            <mask id="prefix__i" fill="#fff">
                <use xlink:href="#prefix__h"/>
            </mask>
            <path fill="#9CD499" d="M41.856 34.8c.054-.088.123-.21.12-.206 4.194-7.156 4.363-16.042.516-23.337-7.025 3.75-2.842 1.472-20.51 11.204C41.869 34.85 38.78 32.94 41.857 34.801" mask="url(#prefix__i)"/>
            <g>
                <mask id="prefix__k" fill="#fff">
                    <use xlink:href="#prefix__j"/>
                </mask>
                <path fill="#9EC8FF" d="M.16 14.27l21.822 8.191 20.473-11.277C32.878-6.858 7.102-4.694.159 14.269" mask="url(#prefix__k)"/>
            </g>
            <g>
                <mask id="prefix__m" fill="#fff">
                    <use xlink:href="#prefix__l"/>
                </mask>
                <path fill="#F39892" d="M18.391 45.884l3.592-23.423L.159 14.27C-5.03 28.443 4.18 43.602 18.391 45.884" mask="url(#prefix__m)"/>
            </g>
            <g>
                <mask id="prefix__o" fill="#fff">
                    <use xlink:href="#prefix__n"/>
                </mask>
                <path fill="#FFF" d="M-1.27 18.147c.407 0 .78.106 1.104.29.189-1.062.451-2.116.792-3.154l11.85 4.448v-.011c-.025-.55.179-1.065.514-1.473l-1.186-.445-10.638-3.994c.872-2.164 2.033-4.132 3.427-5.872-.502-.187-.912-.55-1.183-1.011C1.905 8.8.654 10.926-.283 13.265l-.012-.005-.27.734-.27.74.013.005c-.376 1.136-.663 2.29-.869 3.452.139-.028.28-.044.422-.044" mask="url(#prefix__o)"/>
            </g>
            <g>
                <mask id="prefix__q" fill="#fff">
                    <use xlink:href="#prefix__p"/>
                </mask>
                <path fill="#E7F3FE" d="M41.582 33.72l-.147-.088c-.811-.49-1.164-.702-2.78-1.706L23.53 22.503l12.556-6.917c1.843-1.01 2.6-1.413 4.472-2.41l1.604-.855c3.272 6.754 3.058 14.836-.58 21.4M19.275 45.215l3.292-21.469 8.565 5.337 6.673 4.156 2.957 1.842c-4.717 7.289-13.005 11.197-21.487 10.134m24.213-33.708l.013-.007-.367-.692-.023-.041-.3-.57-.012.007c-2.316-4.1-5.62-7.37-9.592-9.479-3.89-2.065-8.314-2.99-12.792-2.672C15.149-1.573 10.35.438 6.54 3.691c.448.277.791.709.982 1.218 3.57-3.05 8.065-4.936 13-5.285 8.613-.61 16.54 3.684 20.875 11.248l-6.046 3.33c-1.248.685-2.994 1.647-5.915 3.257l-7.243 3.992-.187.103-.608-.379-.033.216-4.258-1.598c.004.551-.217 1.063-.57 1.463l4.585 1.72-3.372 21.995C11.38 43.72 5.87 39.73 2.546 33.931.559 30.465-.472 26.61-.52 22.727c-.24.088-.494.14-.75.14-.283 0-.548-.054-.794-.148.045 4.16 1.146 8.292 3.276 12.005 3.56 6.209 9.47 10.476 16.299 11.801l-.002.014.76.122.765.123.002-.014c.988.126 1.977.19 2.965.19 3.472 0 6.911-.774 10.109-2.29 4.094-1.943 7.534-4.979 9.991-8.805l.016.01.15-.253c.005.002.247-.411.247-.411l.109-.186.016-.028.012-.021.245-.408-.011-.007c3.945-7.064 4.17-15.787.602-23.053" mask="url(#prefix__q)"/>
            </g>
        </g>
        <g>
            <path fill="#9EC8FF" d="M128.198 39.135H63.32c-.79 0-1.43-.642-1.43-1.433V9.868c0-.792.64-1.434 1.43-1.434h64.877c.789 0 1.429.642 1.429 1.434v27.834c0 .791-.64 1.433-1.43 1.433" transform="translate(25 71)"/>
            <path fill="#FFF" d="M126.62 37.694H64.898c-.637 0-1.154-.518-1.154-1.158V17.658c0-.64.517-1.158 1.154-1.158h61.722c.638 0 1.155.519 1.155 1.158v18.878c0 .64-.517 1.158-1.155 1.158M66.698 13.089h-1.374c-.353 0-.64-.288-.64-.642v-1.112c0-.354.287-.642.64-.642h1.374c.353 0 .64.288.64.642v1.112c0 .354-.287.642-.64.642M71.523 13.089h-1.374c-.354 0-.64-.288-.64-.642v-1.112c0-.354.286-.642.64-.642h1.374c.353 0 .64.288.64.642v1.112c0 .354-.287.642-.64.642M76.347 13.089h-1.374c-.353 0-.64-.288-.64-.642v-1.112c0-.354.287-.642.64-.642h1.374c.354 0 .64.288.64.642v1.112c0 .354-.286.642-.64.642" transform="translate(25 71)"/>
            <path fill="#9EC8FF" d="M125.17 21.145H91.3c-.557 0-1.013-.457-1.013-1.016 0-.559.456-1.016 1.013-1.016h33.87c.557 0 1.013.457 1.013 1.016 0 .56-.456 1.016-1.013 1.016M99.695 36.823H65.826c-.557 0-1.013-.457-1.013-1.016 0-.559.456-1.016 1.013-1.016h33.87c.557 0 1.012.457 1.012 1.016 0 .56-.455 1.016-1.013 1.016M105.895 36.823h-3.426c-.212 0-.386-.174-.386-.386v-1.26c0-.212.174-.386.386-.386h3.426c.212 0 .386.174.386.387v1.259c0 .212-.174.386-.386.386M111.178 36.823h-3.426c-.212 0-.386-.174-.386-.386v-1.26c0-.212.174-.386.386-.386h3.426c.212 0 .386.174.386.387v1.259c0 .212-.174.386-.386.386M125.495 25.573H69.408c-.378 0-.687-.31-.687-.69 0-.379.31-.69.687-.69h56.087c.378 0 .688.311.688.69 0 .38-.31.69-.688.69M125.495 28.549H69.408c-.378 0-.687-.31-.687-.69 0-.379.31-.69.687-.69h56.087c.378 0 .688.311.688.69 0 .38-.31.69-.688.69" transform="translate(25 71)"/>
            <path fill="#FFB8B3" d="M294.701 19.586L265.778 19.586 265.778 2.678 286.72 2.678 294.701 10.683z" transform="translate(25 71)"/>
            <path fill="#F39892" d="M286.999 2.678L286.999 11.703 294.701 11.703 294.701 9.969 287.481 2.727z" transform="translate(25 71)"/>
            <path fill="#FFB8B3" d="M287.53 2.678L287.53 9.969 294.701 9.969z" transform="translate(25 71)"/>
            <path fill="#FFF" d="M281.93 9.023h-12.89c-.282 0-.512-.23-.512-.512 0-.282.23-.513.511-.513h12.89c.281 0 .511.231.511.513 0 .282-.23.512-.51.512M281.93 11.645h-12.89c-.282 0-.512-.231-.512-.513 0-.282.23-.512.511-.512h12.89c.281 0 .511.23.511.512 0 .282-.23.513-.51.513M281.93 14.404h-12.89c-.282 0-.512-.231-.512-.513 0-.282.23-.512.511-.512h12.89c.281 0 .511.23.511.512 0 .282-.23.513-.51.513" transform="translate(25 71)"/>
            <path fill="#3E6BAB" d="M280.24 3.978c0 .479-.388.867-.865.867-.478 0-.865-.388-.865-.867s.387-.867.865-.867c.477 0 .864.388.864.867" transform="translate(25 71)"/>
            <path fill="#FAE8B6" d="M166.127 25.332L148.078 21.834 152.282 0.008 170.331 3.505z" transform="translate(25 71)"/>
            <path fill="#9EC8FF" d="M166.513 12.941l-9.57-1.854c-.254-.05-.422-.299-.373-.554.05-.256.298-.424.552-.375l9.57 1.854c.254.05.422.299.373.554-.05.256-.298.424-.552.375M166.05 15.34l-9.569-1.854c-.254-.05-.422-.299-.373-.554.049-.256.298-.424.552-.375l9.57 1.855c.254.049.422.298.373.554-.05.255-.298.424-.553.374M165.575 17.806l-9.569-1.855c-.254-.05-.422-.298-.373-.554.05-.255.298-.424.552-.375l9.57 1.855c.254.05.422.298.373.554-.05.255-.298.424-.553.375" transform="translate(25 71)"/>
            <path fill="#3E6BAB" d="M160.035 2.935c-.083.427-.495.706-.92.624-.427-.083-.706-.496-.623-.924.082-.427.494-.707.92-.624.427.083.705.496.623.924" transform="translate(25 71)"/>
            <path fill="#9EC8FF" d="M308.05 43.243l-27.933-2.952 1.845-17.56 21.494 2.271 5.76 7.138-1.166 11.103z" transform="translate(25 71)"/>
            <path fill="#FFF" d="M303.713 26.324L282.921 24.127 281.365 38.944 307.214 41.675 308.125 32.999 303.068 32.465z" transform="translate(25 71)"/>
            <path fill="#9EC8FF" d="M300.894 31.707l-13.468-1.423c-.309-.033-.535-.313-.502-.622.033-.31.312-.536.62-.504l13.469 1.423c.308.033.534.313.502.622-.033.31-.312.536-.62.504M300.582 34.684l-13.469-1.423c-.308-.033-.534-.313-.502-.623.033-.309.312-.536.62-.503l13.469 1.423c.308.033.534.313.502.622-.033.31-.312.536-.62.504M300.255 37.791l-13.468-1.423c-.309-.032-.535-.312-.502-.622.032-.31.311-.536.62-.503l13.469 1.423c.308.032.534.313.502.622-.033.31-.312.536-.62.503" transform="translate(25 71)"/>
            <path fill="#3E6BAB" d="M293.279 26.786c0 .479-.387.867-.865.867-.477 0-.864-.388-.864-.867 0-.48.387-.867.864-.867.478 0 .865.388.865.867" transform="translate(25 71)"/>
            <path fill="#9CD499" d="M446.837 13.089c0 5.341-4.318 9.672-9.644 9.672-5.326 0-9.643-4.33-9.643-9.672 0-5.342 4.317-9.672 9.643-9.672 5.326 0 9.644 4.33 9.644 9.672" transform="translate(25 71)"/>
            <path fill="#FFF" d="M436.236 16.4l-.017-.001c-.13-.005-.251-.063-.337-.16l-2.62-2.986c-.171-.196-.152-.495.043-.667.196-.173.494-.153.666.043l2.29 2.61 5.241-5.144c.186-.183.485-.18.667.008.182.186.18.486-.007.668l-5.596 5.493c-.088.087-.207.135-.33.135" transform="translate(25 71)"/>
            <path fill="#9EC8FF" d="M2.973 102.874h55.014c1.586 0 2.884-1.301 2.884-2.892V80.646c0-1.59-1.298-2.893-2.884-2.893H2.973c-1.586 0-2.883 1.302-2.883 2.893v19.336c0 1.59 1.297 2.892 2.883 2.892" transform="translate(25 71)"/>
            <path fill="#9EC8FF" d="M53.53 99.084v13.86L37.606 96.973s15.6 2.111 15.924 2.111" transform="translate(25 71)"/>
            <path fill="#FFF" d="M5.678 100.384h49.604c1.345 0 2.445-1.104 2.445-2.453V82.696c0-1.349-1.1-2.452-2.445-2.452H5.678c-1.344 0-2.445 1.103-2.445 2.452v15.235c0 1.35 1.1 2.453 2.445 2.453" transform="translate(25 71)"/>
            <path fill="#9EC8FF" d="M28.051 85.225h24.615c.594 0 1.08-.488 1.08-1.083 0-.596-.486-1.083-1.08-1.083H28.051c-.593 0-1.08.487-1.08 1.083 0 .595.487 1.083 1.08 1.083M7.498 89.365h45.641c.334 0 .607-.274.607-.609 0-.334-.273-.608-.607-.608H7.498c-.334 0-.607.274-.607.608 0 .335.273.609.607.609M7.498 91.721h45.641c.334 0 .607-.273.607-.608 0-.334-.273-.608-.607-.608H7.498c-.334 0-.607.274-.607.608 0 .335.273.608.607.608M414.02 85.323h2.663c.685 0 1.24-.557 1.24-1.244v-2.154c0-.687-.555-1.244-1.24-1.244h-2.662c-.685 0-1.24.557-1.24 1.244v2.154c0 .687.555 1.244 1.24 1.244M404.671 85.323h2.662c.685 0 1.24-.557 1.24-1.244v-2.154c0-.687-.555-1.244-1.24-1.244h-2.662c-.685 0-1.24.557-1.24 1.244v2.154c0 .687.555 1.244 1.24 1.244M395.321 85.323h2.662c.685 0 1.24-.557 1.24-1.244v-2.154c0-.687-.555-1.244-1.24-1.244h-2.662c-.685 0-1.24.557-1.24 1.244v2.154c0 .687.555 1.244 1.24 1.244" transform="translate(25 71)"/>
        </g>
    </g>
  </svg>